<?xml version="1.0" standalone="no"?><!DOCTYPE svg PUBLIC "-//W3C//DTD SVG 1.1//EN" "http://www.w3.org/Graphics/SVG/1.1/DTD/svg11.dtd"><svg t="1649690795365" class="icon" viewBox="0 0 1930 1024" version="1.1" xmlns="http://www.w3.org/2000/svg" p-id="50467" xmlns:xlink="http://www.w3.org/1999/xlink" width="376.953125" height="200"><defs><style type="text/css">@font-face { font-family: feedback-iconfont; src: url("//at.alicdn.com/t/font_1031158_u69w8yhxdu.woff2?t=1630033759944") format("woff2"), url("//at.alicdn.com/t/font_1031158_u69w8yhxdu.woff?t=1630033759944") format("woff"), url("//at.alicdn.com/t/font_1031158_u69w8yhxdu.ttf?t=1630033759944") format("truetype"); }
</style></defs><path d="M174.395 169.076h796.246v686.382H174.395z" fill="#1afa29" p-id="50468"></path><path d="M1843.152 338.138v-163.73A177.595 177.595 0 0 0 1663.423 0.014H179.73A177.595 177.595 0 0 0 0 174.41V849.59a177.595 177.595 0 0 0 179.729 174.396h1483.694a177.595 177.595 0 0 0 179.729-174.396V685.862a90.664 90.664 0 0 0 87.464-89.598V427.736a90.664 90.664 0 0 0-87.464-89.598z m-179.729 590.918H179.73A81.065 81.065 0 0 1 98.13 849.59V174.41a81.065 81.065 0 0 1 81.598-79.465h1483.694a81.065 81.065 0 0 1 82.132 79.465V852.79a81.065 81.065 0 0 1-82.132 76.265z" fill="#1afa29" p-id="50469"></path></svg>