<?xml version="1.0" standalone="no"?><!DOCTYPE svg PUBLIC "-//W3C//DTD SVG 1.1//EN" "http://www.w3.org/Graphics/SVG/1.1/DTD/svg11.dtd"><svg t="1649729617196" class="icon" viewBox="0 0 1024 1024" version="1.1" xmlns="http://www.w3.org/2000/svg" p-id="1308" xmlns:xlink="http://www.w3.org/1999/xlink" width="200" height="200"><defs><style type="text/css">@font-face { font-family: feedback-iconfont; src: url("//at.alicdn.com/t/font_1031158_u69w8yhxdu.woff2?t=1630033759944") format("woff2"), url("//at.alicdn.com/t/font_1031158_u69w8yhxdu.woff?t=1630033759944") format("woff"), url("//at.alicdn.com/t/font_1031158_u69w8yhxdu.ttf?t=1630033759944") format("truetype"); }
</style></defs><path d="M292.571429 694.857143q0-30.285714-21.428571-51.714286t-51.714286-21.428571-51.714286 21.428571-21.428571 51.714286 21.428571 51.714286 51.714286 21.428571 51.714286-21.428571 21.428571-51.714286zm585.142857 0q0-30.285714-21.428571-51.714286t-51.714286-21.428571-51.714286 21.428571-21.428571 51.714286 21.428571 51.714286 51.714286 21.428571 51.714286-21.428571 21.428571-51.714286zm-26.285714-226.285714l-41.142857-219.428571q-2.857143-13.142857-12.857143-21.428571t-23.142857-8.285714l-524.571429 0q-13.142857 0-23.142857 8.285714t-12.857143 21.428571l-41.142857 219.428571q-2.857143 17.142857 8 30.285714t28 13.142857l606.857143 0q17.142857 0 28-13.142857t8-30.285714zm-129.142857-349.714286q0-11.428571-8-19.428571t-19.428571-8l-365.714286 0q-11.428571 0-19.428571 8t-8 19.428571 8 19.428571 19.428571 8l365.714286 0q11.428571 0 19.428571-8t8-19.428571zm228.571429 414.285714l0 344.571429-73.142857 0 0 73.142857q0 30.285714-21.428571 51.714286t-51.714286 21.428571-51.714286-21.428571-21.428571-51.714286l0-73.142857-438.857143 0 0 73.142857q0 30.285714-21.428571 51.714286t-51.714286 21.428571-51.714286-21.428571-21.428571-51.714286l0-73.142857-73.142857 0 0-344.571429q0-64 14.285714-127.428571l58.857143-259.428571q5.142857-44.571429 55.714286-78.285714t131.428571-50.857143 178.571429-17.142857 178.571429 17.142857 131.428571 50.857143 55.714286 78.285714l60 259.428571q13.142857 58.285714 13.142857 127.428571z" p-id="1309" fill="#996600"></path></svg>