<?xml version="1.0" standalone="no"?><!DOCTYPE svg PUBLIC "-//W3C//DTD SVG 1.1//EN" "http://www.w3.org/Graphics/SVG/1.1/DTD/svg11.dtd"><svg t="1649690320839" class="icon" viewBox="0 0 1355 1024" version="1.1" xmlns="http://www.w3.org/2000/svg" p-id="36610" xmlns:xlink="http://www.w3.org/1999/xlink" width="264.6484375" height="200"><defs><style type="text/css">@font-face { font-family: feedback-iconfont; src: url("//at.alicdn.com/t/font_1031158_u69w8yhxdu.woff2?t=1630033759944") format("woff2"), url("//at.alicdn.com/t/font_1031158_u69w8yhxdu.woff?t=1630033759944") format("woff"), url("//at.alicdn.com/t/font_1031158_u69w8yhxdu.ttf?t=1630033759944") format("truetype"); }
</style></defs><path d="M1299.772238 471.021724a366.045786 366.045786 0 0 0-97.270943-99.189942 379.484778 379.484778 0 0 0-29.436982-123.509928 398.682766 398.682766 0 0 0-89.591948-127.986925 405.722762 405.722762 0 0 0-133.107922-91.511946A409.56176 409.56176 0 0 0 794.859534 0.026 401.242765 401.242765 0 0 0 568.319667 67.85896a411.481759 411.481759 0 0 0-97.909943 91.511947 261.735847 261.735847 0 0 0-63.994962-7.679996 247.656855 247.656855 0 0 0-176.623897 71.033958 245.736856 245.736856 0 0 0-72.312957 202.860882 325.729809 325.729809 0 0 0-84.471951 72.953957A309.731819 309.731819 0 0 0 0.053 703.959588a311.010818 311.010818 0 0 0 97.269943 229.099865 323.80981 323.80981 0 0 0 231.659864 90.871947h660.418613a360.926789 360.926789 0 0 0 255.97585-104.949938 360.926789 360.926789 0 0 0 81.272953-116.469932 355.166792 355.166792 0 0 0 27.516984-138.866919 345.567798 345.567798 0 0 0-54.394969-192.622887z" p-id="36611"></path></svg>