<?xml version="1.0" standalone="no"?><!DOCTYPE svg PUBLIC "-//W3C//DTD SVG 1.1//EN" "http://www.w3.org/Graphics/SVG/1.1/DTD/svg11.dtd"><svg t="1649690210742" class="icon" viewBox="0 0 1024 1024" version="1.1" xmlns="http://www.w3.org/2000/svg" p-id="34386" xmlns:xlink="http://www.w3.org/1999/xlink" width="200" height="200"><defs><style type="text/css">@font-face { font-family: feedback-iconfont; src: url("//at.alicdn.com/t/font_1031158_u69w8yhxdu.woff2?t=1630033759944") format("woff2"), url("//at.alicdn.com/t/font_1031158_u69w8yhxdu.woff?t=1630033759944") format("woff"), url("//at.alicdn.com/t/font_1031158_u69w8yhxdu.ttf?t=1630033759944") format("truetype"); }
</style></defs><path d="M855.4 345.8L615.9 106.5c-5.3-5.3-12.4-8.2-19.9-8.2H174.4c-7.8 0-14.1 6.3-14.1 14.1v801.8c0 7.8 6.3 14.1 14.1 14.1h675.2c7.8 0 14.1-6.3 14.1-14.1V365.7c0-7.4-3-14.6-8.3-19.9z m-52.9 514.8h-581V165.8h376.6v204.1h204.3l0.1 490.7z" p-id="34387"></path><path d="M503.5 464.5H297.1c-14.9 0-27-12.2-27-27v-2c0-14.9 12.2-27 27-27h206.5c14.9 0 27 12.2 27 27v2c0 14.8-12.2 27-27.1 27zM568.7 564.3H297.1c-14.9 0-27-12.2-27-27v-2c0-14.9 12.2-27 27-27h271.6c14.9 0 27 12.2 27 27v2c0 14.9-12.2 27-27 27zM633.8 664.1H297.1c-14.9 0-27-12.2-27-27v-2c0-14.9 12.2-27 27-27h336.7c14.9 0 27 12.2 27 27v2c0 14.9-12.1 27-27 27zM698.9 763.9H297.1c-14.9 0-27-12.2-27-27v-2c0-14.9 12.2-27 27-27H699c14.9 0 27 12.2 27 27v2c-0.1 14.9-12.2 27-27.1 27z" p-id="34388"></path></svg>