<?xml version="1.0" standalone="no"?><!DOCTYPE svg PUBLIC "-//W3C//DTD SVG 1.1//EN" "http://www.w3.org/Graphics/SVG/1.1/DTD/svg11.dtd"><svg t="1649690165019" class="icon" viewBox="0 0 1024 1024" version="1.1" xmlns="http://www.w3.org/2000/svg" p-id="32686" xmlns:xlink="http://www.w3.org/1999/xlink" width="200" height="200"><defs><style type="text/css">@font-face { font-family: feedback-iconfont; src: url("//at.alicdn.com/t/font_1031158_u69w8yhxdu.woff2?t=1630033759944") format("woff2"), url("//at.alicdn.com/t/font_1031158_u69w8yhxdu.woff?t=1630033759944") format("woff"), url("//at.alicdn.com/t/font_1031158_u69w8yhxdu.ttf?t=1630033759944") format("truetype"); }
</style></defs><path d="M832 426.666667h-42.666667v-82.773334a106.666667 106.666667 0 0 0-26.88-71.253333l-103.466666-114.133333A91.946667 91.946667 0 0 0 591.36 128H329.173333A98.56 98.56 0 0 0 234.666667 229.973333V426.666667H192a64 64 0 0 0-64 64v213.333333a64 64 0 0 0 64 64h42.666667v26.026667A98.56 98.56 0 0 0 329.173333 896h365.653334A98.56 98.56 0 0 0 789.333333 794.026667V768h42.666667a64 64 0 0 0 64-64V490.666667a64 64 0 0 0-64-64zM612.693333 176.853333a52.266667 52.266667 0 0 1 14.72 11.306667l103.466667 113.92a64 64 0 0 1 12.16 21.333333H612.266667zM277.333333 426.666667v-196.693334A56.106667 56.106667 0 0 1 329.173333 170.666667h240.853334v151.04a42.666667 42.666667 0 0 0 42.666666 42.666666H746.666667V512H277.333333z m469.333334 341.333333v26.026667A56.106667 56.106667 0 0 1 694.826667 853.333333H329.173333A56.106667 56.106667 0 0 1 277.333333 794.026667V682.666667h469.333334z m106.666666-64a21.333333 21.333333 0 0 1-21.333333 21.333333h-42.666667v-64a21.333333 21.333333 0 0 0-21.333333-21.333333H256a21.333333 21.333333 0 0 0-21.333333 21.333333v64H192a21.333333 21.333333 0 0 1-21.333333-21.333333V490.666667a21.333333 21.333333 0 0 1 21.333333-21.333334h42.666667v64a21.333333 21.333333 0 0 0 21.333333 21.333334h512a21.333333 21.333333 0 0 0 21.333333-21.333334v-64h42.666667a21.333333 21.333333 0 0 1 21.333333 21.333334z" p-id="32687"></path></svg>