<?xml version="1.0" standalone="no"?><!DOCTYPE svg PUBLIC "-//W3C//DTD SVG 1.1//EN" "http://www.w3.org/Graphics/SVG/1.1/DTD/svg11.dtd"><svg t="1649691555251" class="icon" viewBox="0 0 1024 1024" version="1.1" xmlns="http://www.w3.org/2000/svg" p-id="54290" xmlns:xlink="http://www.w3.org/1999/xlink" width="200" height="200"><defs><style type="text/css">@font-face { font-family: feedback-iconfont; src: url("//at.alicdn.com/t/font_1031158_u69w8yhxdu.woff2?t=1630033759944") format("woff2"), url("//at.alicdn.com/t/font_1031158_u69w8yhxdu.woff?t=1630033759944") format("woff"), url("//at.alicdn.com/t/font_1031158_u69w8yhxdu.ttf?t=1630033759944") format("truetype"); }
</style></defs><path d="M929.946566 755.049446c-0.46774-10.758022-7.133036-20.346694-17.189448-24.556355l-1.520156-0.584675 0.93548-1.052415-102.084275-57.648967 1.16935-1.052415c20.931369-19.878954 46.540139-35.080507 73.902935-44.084504 14.266073-4.911271 21.866849-19.995889 17.423318-34.378897-2.3387-6.899166-7.366906-12.745918-13.915267-16.020098-6.548361-3.274181-14.266073-3.741921-21.16524-1.40322-40.459518 13.681398-77.410985 37.185337-106.761676 68.056184l-0.584675 0.584675-0.70161-0.46774-230.946671-130.733357 1.754025-0.93548 229.426516-129.914811 0.584675 0.584675c29.233756 31.455521 66.302158 54.959461 107.112481 68.056184 7.016101 2.3387 14.967683 1.63709 21.516045-1.87096 6.548361-3.508051 11.576567-9.588672 13.681397-16.721709 4.560466-14.266073-3.274181-29.818431-17.423318-34.729702-27.713601-8.770127-53.673176-24.088615-74.838415-44.084504l-1.16935-1.052415 1.286285-0.70161 102.668951-57.648966c12.979788-7.600777 17.423318-23.97168 10.290282-37.068403-3.624986-6.314491-9.822542-10.991892-16.955579-12.862852-7.133036-1.87096-14.733813-0.818545-21.048304 2.923375l-103.721366 58.350577-0.350805-1.40322c-6.899166-27.713601-7.483841-57.298161-1.754025-85.245632 1.40322-7.366906-0.116935-14.967683-4.326596-21.16524-4.209661-6.197556-10.641087-10.524152-18.007994-11.927372-15.318488-2.923376-30.169236 7.016101-33.092611 22.334589-7.951582 41.394998-5.846751 84.544022 6.314491 124.886605l0.23387 0.818546-0.818545 0.46774-230.478931 131.551901V202.06372l0.818545-0.23387c41.044193-10.056412 79.632751-29.935366 111.672947-57.415096 11.108827-10.056412 12.044307-27.479731 2.221766-38.822428-10.173347-11.108827-27.01199-12.278177-38.471623-2.455635-21.165239 18.943474-46.657074 33.092612-73.902935 40.927258l-1.40322 0.46774v-116.818088c0-15.318488-12.395112-27.713601-27.713601-27.713601s-27.713601 12.395112-27.7136 27.713601v116.818088l-1.40322-0.46774c-27.713601-8.068517-53.556241-22.451524-74.838415-41.745804-11.459632-7.717712-27.01199-5.729816-36.249858 4.794336-9.120932 10.407217-9.120932 26.193445 0 36.600663 31.572456 28.298276 70.161014 48.060295 111.556013 57.298161l0.818545 0.23387v262.402193l-1.637091-0.93548-231.531346-130.733357 0.23387-0.818545c11.927372-40.342583 14.266073-83.491607 6.665297-124.886605-3.040311-15.318488-18.124929-25.257965-33.326482-22.217654-15.318488 3.040311-25.257965 18.007994-22.217655 33.326482 6.548361 28.064406 6.431426 57.882837-0.23387 86.181112l-0.350805 1.40322-1.286285-0.70161-101.850405-57.648967c-6.314491-3.741921-14.032203-4.794336-21.048305-2.923375-7.016101 1.87096-13.213658 6.548361-16.955578 12.862852-6.431426 12.979788-1.520155 28.999886 11.108827 36.249858L136.308562 351.155875l-1.16935 1.052416c-21.165239 19.878954-46.890944 35.197442-74.48761 44.084503-14.383008 4.794336-22.217654 20.463629-17.423319 34.963572 5.028206 14.383008 20.931369 22.100719 35.197442 17.189449 40.810323-13.213658 77.878726-36.717597 107.112482-68.056184l0.584675-0.584675 0.818545 0.46774 230.712801 130.967226-1.754025 0.935481-231.297476 129.797876-0.584675-0.584676C154.316556 610.868562 117.365088 587.364623 77.13944 573.33242c-7.016101-2.3387-14.499943-1.87096-21.165239 1.40322-6.665296 3.274181-11.576567 9.003997-13.915268 16.020098-4.560466 14.266073 3.274181 29.818431 17.423319 34.612767 27.479731 9.003997 53.205436 24.20555 74.25374 44.084504l1.052415 1.052415-1.286286 0.70161-100.914925 57.999772c-12.862853 7.483841-17.540254 24.322485-10.290282 37.419207 7.834647 13.096723 24.790225 17.423318 38.003883 9.705607l103.955236-58.350576 0.350805 1.40322c7.483841 28.415211 7.951582 58.467512 1.40322 86.999657-1.40322 7.366906 0.116935 14.967683 4.326596 21.16524 4.209661 6.314491 10.641087 10.524152 18.007993 11.927372 15.201553 2.923376 30.169236-7.016101 33.092612-22.334589 8.770127-41.862738 6.197556-85.479502-7.483841-126.055956l-0.23387-0.818545 0.818545-0.46774 232.349891-131.318031v262.285257l-0.818545 0.23387c-41.511933 9.237867-80.100491 29.116821-111.672947 57.415097-11.108827 10.056412-12.161242 27.479731-2.221766 38.822428 10.056412 11.225762 27.01199 12.278177 38.471623 2.455635 21.399109-19.177344 47.241749-33.677287 74.838415-41.745803l1.40322-0.46774v118.805983c0 15.318488 12.395112 27.713601 27.713601 27.713601s27.713601-12.395112 27.7136-27.713601v-116.818088l1.403221 0.46774c26.895055 7.951582 52.15302 21.983784 73.084389 40.576453 7.016101 8.536257 18.358799 12.044307 28.882951 9.120932 10.524152-2.923376 18.358799-11.810437 19.995889-22.568459 1.63709-10.758022-3.274181-21.516044-12.395112-27.479731-31.923261-27.713601-70.511819-47.592555-111.556013-57.532031l-0.818545-0.23387V559.767957l1.63709 0.93548 231.531347 130.499486-0.23387 0.818546c-12.745918 40.459518-14.967683 83.725477-6.314492 125.23741 1.40322 7.249971 5.846751 13.681398 11.927373 17.657188 6.080621 4.092726 13.798333 5.495946 21.048304 3.975791 14.499943-3.624986 23.50394-17.774124 20.463629-32.391002-6.431426-27.947471-6.431426-57.532032 0-85.596437l0.350805-1.40322 1.286285 0.70161 102.318146 57.648967c8.653192 6.782231 20.229759 7.951582 29.935366 3.04031 9.588672-5.028206 15.435423-15.084618 15.084618-25.84264z" p-id="54291" fill="#1296db"></path></svg>