<?xml version="1.0" standalone="no"?><!DOCTYPE svg PUBLIC "-//W3C//DTD SVG 1.1//EN" "http://www.w3.org/Graphics/SVG/1.1/DTD/svg11.dtd"><svg t="1649729727337" class="icon" viewBox="0 0 1024 1024" version="1.1" xmlns="http://www.w3.org/2000/svg" p-id="2525" xmlns:xlink="http://www.w3.org/1999/xlink" width="200" height="200"><defs><style type="text/css">@font-face { font-family: feedback-iconfont; src: url("//at.alicdn.com/t/font_1031158_u69w8yhxdu.woff2?t=1630033759944") format("woff2"), url("//at.alicdn.com/t/font_1031158_u69w8yhxdu.woff?t=1630033759944") format("woff"), url("//at.alicdn.com/t/font_1031158_u69w8yhxdu.ttf?t=1630033759944") format("truetype"); }
</style></defs><path d="M694.857126 0.0001q105.691418 0 180.882268 53.394281t75.117707 129.462845l0 511.99995q0 74.313136-71.679993 126.829702t-174.591983 55.44228l121.709702 115.419417q9.142856 8.557713 4.534857 19.967998t-17.115427 11.410285l-603.428513 0q-12.58057 0-17.115427-11.410285t4.534857-19.967998l121.709702-115.419417q-102.838847-2.852571-174.591983-55.44228t-71.679993-126.829702l0-511.99995q0-75.995421 75.117707-129.462845t180.882268-53.394281l365.71425 0zM512.000001 768.000025q45.714281 0 77.677707-32.036568t32.036568-77.677707-32.036568-77.677707-77.677707-32.036568-77.677707 32.036568-32.036568 77.677707 32.036568 77.677707 77.677707 32.036568zM841.142826 438.8572l0-292.5714-658.28565 0 0 292.5714 658.28565 0z" p-id="2526" fill="#1296db"></path></svg>